<svg id="eye" xmlns="http://www.w3.org/2000/svg" width="147.792" height="77.937" viewBox="0 0 147.792 77.937">
  <g id="Group_11563" data-name="Group 11563" transform="translate(0 0)">
    <g id="Group_11562" data-name="Group 11562" transform="translate(0 0)">
      <path id="Path_35224" data-name="Path 35224" d="M146.688,157.08C145.369,155.609,113.638,121,73.9,121S2.423,155.609,1.1,157.08a4.33,4.33,0,0,0,0,5.776c1.319,1.471,33.05,36.08,72.792,36.08s71.473-34.609,72.792-36.08A4.331,4.331,0,0,0,146.688,157.08ZM73.9,190.277A30.309,30.309,0,1,1,104.2,159.968,30.345,30.345,0,0,1,73.9,190.277Z" transform="translate(0.001 -121)"/>
    </g>
  </g>
  <g id="Group_11565" data-name="Group 11565" transform="translate(52.247 17.319)">
    <g id="Group_11564" data-name="Group 11564">
      <path id="Path_35225" data-name="Path 35225" d="M206.979,193.99a12.948,12.948,0,0,1,5.452-10.545A21.369,21.369,0,0,0,202.649,181a21.649,21.649,0,1,0,21.28,25.3A12.914,12.914,0,0,1,206.979,193.99Z" transform="translate(-181 -181)"/>
    </g>
  </g>
</svg>
